<svg id="Component_20_1" data-name="Component 20 – 1" xmlns="http://www.w3.org/2000/svg" width="83.728" height="55.937" viewBox="0 0 83.728 55.937">
  <path id="Path_382" data-name="Path 382" d="M19.113,49.814c7.053.151,15.492.459,21.929,3.219,2.452-8.284,11.2-18.1,17.334-24.23a1.481,1.481,0,0,1,2.144,0c6.286,6.437,14.725,15.638,17.329,24.23,6.447-2.764,14.878-3.072,21.778-3.219a1.58,1.58,0,0,1,1.7,1.534c0,11.658-.923,30.516-16.562,30.516a15.741,15.741,0,0,1-9.661-3.37L71.573,82.02c-1.534,1.377-3.678-.772-2.144-2.144l3.526-3.531a12.025,12.025,0,0,1-2.306-3.683,19.252,19.252,0,0,1-9.817,3.375v6.75a1.532,1.532,0,0,1-3.062,0v-6.75a17.231,17.231,0,0,1-9.358-3.531,19.983,19.983,0,0,1-2.3,3.839l3.526,3.531A1.517,1.517,0,0,1,47.5,82.02l-3.531-3.526a16.426,16.426,0,0,1-9.656,3.37c-15.795,0-16.718-18.7-16.718-30.516a1.51,1.51,0,0,1,1.518-1.534Zm48,4.6c1.377-1.539,3.678.308,2.447,1.841L60.818,67.143V72.97a15.878,15.878,0,0,0,14.72-15.791c0-7.829-10.735-19.483-16.1-25.154-5.368,5.519-15.952,17.48-15.952,25.154A15.82,15.82,0,0,0,57.749,72.97V67.143L49.158,56.251c-1.377-1.534,1.08-3.375,2.3-1.841l6.286,7.819V49.5a1.531,1.531,0,0,1,3.062,0V62.229ZM40.427,56.1c-5.211-2.608-13.8-3.067-19.785-3.224.151,9.671.772,25.92,13.651,25.92a11.951,11.951,0,0,0,7.355-2.608l-2.911-2.911L28,72.208a1.541,1.541,0,0,1,.3-3.067l7.058.762-6.437-6.437c-1.534-1.382.767-3.683,2.144-2.149l6.437,6.437L36.739,60.7a1.544,1.544,0,0,1,3.072-.3l1.069,10.735,3.062,2.911a15.633,15.633,0,0,0,2-3.526A19.427,19.427,0,0,1,40.427,56.1Zm38.037,0A19.258,19.258,0,0,1,73.1,70.513a11.5,11.5,0,0,0,1.993,3.526L78,71.128l1.231-10.735c.151-1.993,3.219-1.685,3.062.3l-.762,7.058,6.437-6.437c1.377-1.534,3.526.767,2.149,2.149L83.671,69.9l6.906-.762a1.541,1.541,0,0,1,.3,3.067L80.144,73.277l-2.916,2.911A12.081,12.081,0,0,0,84.745,78.8c12.884,0,13.494-16.254,13.494-25.92-5.822.156-14.413.61-19.775,3.224Z" transform="translate(-17.594 -28.345)" fill="#c1c6c8"/>
</svg>
