<svg id="Component_17_1" data-name="Component 17 – 1" xmlns="http://www.w3.org/2000/svg" width="75.11" height="62.82" viewBox="0 0 75.11 62.82">
  <path id="Path_388" data-name="Path 388" d="M61.695,51.6a1.545,1.545,0,0,1,3.09,0V61.817a8.278,8.278,0,0,0,4.633-1.43c4.035-2.73,3.086-8.785,1.9-12.7A32.872,32.872,0,0,0,63.359,34.5a33.247,33.247,0,0,0-8.191,13.3c-1.187,3.922-2.137,9.859,1.9,12.59a10.2,10.2,0,0,0,4.633,1.43Zm-47.734,29.8a1.485,1.485,0,1,1,0-2.969H35.1v-9.5a11.456,11.456,0,0,1-4.984-1.9c-7.012-5.223-5.937-18.4-4.394-26,1.66-7.84,4.75-17.223,11.043-22.441,6.3,5.106,9.266,14.844,10.805,22.441s2.73,20.781-4.27,26a10.758,10.758,0,0,1-5.23,2.02v9.383H61.7L61.7,64.782a12.313,12.313,0,0,1-6.3-1.9c-5.344-3.562-4.746-10.688-3.086-16.027A33.593,33.593,0,0,1,63.356,30.591,34.2,34.2,0,0,1,74.161,46.736c1.664,5.461,2.258,12.59-3.086,16.148a13.151,13.151,0,0,1-6.289,2.02V78.442H86.044a1.485,1.485,0,1,1,0,2.969ZM44.719,41.63c-1.66-7.957-4.754-15.559-7.957-19-3.328,3.566-6.41,11.047-8.07,19-1.312,6.176-2.5,18.645,3.2,23.035A8.729,8.729,0,0,0,35.1,65.974l0-16.984a1.485,1.485,0,1,1,2.969,0V65.974a6.366,6.366,0,0,0,3.441-1.309C47.215,60.27,45.9,47.8,44.719,41.63Z" transform="translate(-12.446 -18.591)" fill="#c1c6c8"/>
</svg>
