<svg id="noun-community-7171836" xmlns="http://www.w3.org/2000/svg" width="74.001" height="54.102" viewBox="0 0 74.001 54.102">
  <path id="Path_389" data-name="Path 389" d="M59.16,32.16A9.159,9.159,0,1,0,50,41.32a9.162,9.162,0,0,0,9.16-9.16Zm-14.32,0A5.159,5.159,0,1,1,50,37.32a5.159,5.159,0,0,1-5.16-5.16Z" transform="translate(-12.998 -23)" fill="#c1c6c8"/>
  <path id="Path_390" data-name="Path 390" d="M71.078,47.8A9.162,9.162,0,1,0,62,38.641a9.157,9.157,0,0,0,9.078,9.16Zm0-14.32A5.16,5.16,0,1,1,66,38.641a5.158,5.158,0,0,1,5.078-5.16Z" transform="translate(-12.998 -23)" fill="#c1c6c8"/>
  <path id="Path_391" data-name="Path 391" d="M38,38.641a9.159,9.159,0,1,0-9.16,9.16A9.158,9.158,0,0,0,38,38.641Zm-14.32,0a5.119,5.119,0,1,0,.082,0Z" transform="translate(-12.998 -23)" fill="#c1c6c8"/>
  <path id="Path_392" data-name="Path 392" d="M70.781,50.961a15.345,15.345,0,0,0-6.84,1.758,15.5,15.5,0,0,0-2.781-3.68,15.765,15.765,0,0,0-24.942,3.68,16,16,0,0,0-7.6-1.758A16.22,16.22,0,0,0,13,67.34V75a2,2,0,0,0,4,0V67.34A12.219,12.219,0,0,1,28.7,54.961a11.75,11.75,0,0,1,6,1.48,16.871,16.871,0,0,0-.6,4.418V71.621a5.379,5.379,0,1,0,10.758,0V66.879A15.847,15.847,0,0,0,40,55.52L39.44,55a11.757,11.757,0,0,1,18.9-3,11.518,11.518,0,0,1,2.3,3.121,16.523,16.523,0,0,0-5.48,12.32v4.277a5.381,5.381,0,1,0,10.762,0V60.4a15.2,15.2,0,0,0-.5-4,11.547,11.547,0,0,1,5.438-1.5,12.006,12.006,0,0,1,8.582,3.422A11.828,11.828,0,0,1,83,66.821V75a2,2,0,0,0,4,0V66.879a16.006,16.006,0,0,0-16.219-16Zm-30,16V71.7a1.381,1.381,0,0,1-2.762,0V59.359a11.758,11.758,0,0,1,2.82,7.519ZM62,71.621a1.381,1.381,0,0,1-2.762,0V67.34a12.61,12.61,0,0,1,2.723-7.84v.9Z" transform="translate(-12.998 -23)" fill="#c1c6c8"/>
</svg>
