<svg id="noun-paw-print-6794330" xmlns="http://www.w3.org/2000/svg" width="55.756" height="51.653" viewBox="0 0 55.756 51.653">
  <path id="Path_394" data-name="Path 394" d="M59.975,27.419c-1.987-4.3-4.679-4.622-6.1-4.422A6.619,6.619,0,0,0,50.3,24.869a12.118,12.118,0,0,0-.533-6.979,18.183,18.183,0,0,0-2.743-4.573l-1.064-1.172c-1.434-1.473-4.292-3.866-7.28-3.281-3.71.719-4.549,4.955-4.867,6.545-.1.494-.188,1.064-.264,1.666a22.812,22.812,0,0,0-.489-2.743c-1.385-5.381-4.529-5.726-6.277-5.449-4.634.734-8.7,6.3-9.859,10.035a11.792,11.792,0,0,0-.35,5.337,5.883,5.883,0,0,0-4.806-1.948c-2.1.277-3.991,2.092-5.18,4.975-1.361,3.3-1.879,8.537,1.133,12.436a15.041,15.041,0,0,0,1.674,1.823l.551.445a8.225,8.225,0,0,0,4.967,1.759,7.041,7.041,0,0,0,1.453-.169,12.38,12.38,0,0,0-1.887,3.188,9.374,9.374,0,0,0,.338,8.011,10.251,10.251,0,0,0,5.131,4.5,15.242,15.242,0,0,0,7.83.915,19.162,19.162,0,0,0,2.706-.614,8.331,8.331,0,0,1,3.695-.462,9.679,9.679,0,0,1,1.811.458c.369.113.739.232,1.128.338a16.331,16.331,0,0,0,4.1.519c5.043,0,9.974-2.356,11.42-7.3a10.231,10.231,0,0,0-1.786-8.782,6.767,6.767,0,0,0,.947.069,8.172,8.172,0,0,0,4.035-1.133,8.614,8.614,0,0,0,1.16-.8l.157-.125a4.835,4.835,0,0,0,.776-.714,3.165,3.165,0,0,0,.526-.526,10.883,10.883,0,0,0,2.75-6.277,15.175,15.175,0,0,0-1.216-7.424Zm-14.52,5.187a11.122,11.122,0,0,0-.369,6.108,13.949,13.949,0,0,1-1.353-2.136,11.745,11.745,0,0,0-2.927-3.834,7.081,7.081,0,0,0,1.145.12A7.279,7.279,0,0,0,45.8,31.7c-.132.306-.25.614-.35.908ZM37.223,16.095c.626-3.169,1.51-3.69,2.112-3.807a1.665,1.665,0,0,1,.257-.024c.971,0,2.474.891,3.827,2.273l.964,1.052a14.571,14.571,0,0,1,2.148,3.6,8.658,8.658,0,0,1-1.272,8.464A4.158,4.158,0,0,1,41.151,29.3c-2.361-.482-3.952-3.276-4.3-5.787a27.579,27.579,0,0,1,.382-7.417ZM32.882,26.832a14.164,14.164,0,0,0,.639-2.229,11.337,11.337,0,0,0,3.032,5.9,11.383,11.383,0,0,0-4.329-.414,11.859,11.859,0,0,0-1.61.3,10.445,10.445,0,0,0,2.273-3.558ZM21.169,31.694a7.777,7.777,0,0,0,1.791.864,7.338,7.338,0,0,0,2.148.333,6.557,6.557,0,0,0,.852-.081c-.056.049-.12.088-.176.132A10.892,10.892,0,0,0,23.611,35.6a24.66,24.66,0,0,1-1.791,2.594l-.35.357a10.871,10.871,0,0,0-.294-6.854Zm-.927-11.745c.959-3.1,4.329-7.184,7.072-7.617.47-.069,1.559-.245,2.361,2.875a28.08,28.08,0,0,1,.607,7.368,9.419,9.419,0,0,1-.658,3.02c-.734,1.928-2.838,4.485-5.645,3.634a5.671,5.671,0,0,1-3.113-2.883,8.427,8.427,0,0,1-.626-6.4Zm-8.18,19.282-.526-.421a13.3,13.3,0,0,1-1.072-1.216c-1.967-2.542-1.754-6.34-.67-8.975.759-1.843,1.779-2.77,2.413-2.851,1.622-.213,4.26,3.453,5.618,6.871a7.479,7.479,0,0,1,.232,5.224A3.481,3.481,0,0,1,15.8,40.148a4.343,4.343,0,0,1-3.734-.92ZM49.277,52.148c-1.246,4.265-6.721,5.581-11.283,4.385-.333-.088-.646-.188-.964-.289a12.758,12.758,0,0,0-2.425-.59,10.623,10.623,0,0,0-1.3-.081,13.031,13.031,0,0,0-3.783.646,16.4,16.4,0,0,1-2.224.519,11.816,11.816,0,0,1-5.988-.67A6.771,6.771,0,0,1,17.9,53.156a5.914,5.914,0,0,1-.188-5.1A10.273,10.273,0,0,1,20.7,44.117l.519-.433a3.491,3.491,0,0,0,.306-.245c.081-.076.149-.144.306-.3l2.518-2.574a27.268,27.268,0,0,0,2.241-3.188,7.524,7.524,0,0,1,1.4-1.747,7.766,7.766,0,0,1,4.586-2.08,8.021,8.021,0,0,1,5.236,1.3,7.908,7.908,0,0,1,2.838,3.377,14,14,0,0,0,3.176,4.248c.558.5,1.072.9,1.566,1.277a10.711,10.711,0,0,1,2.369,2.273c.883,1.184,2.256,3.558,1.51,6.127ZM57.714,34.5a7.48,7.48,0,0,1-2.036,4.466,3.6,3.6,0,0,0-.394.369l-.45.4a5.579,5.579,0,0,1-.746.519,4.131,4.131,0,0,1-3.245.538A3.471,3.471,0,0,1,48.8,38.883a7.085,7.085,0,0,1-.049-5.156,20.2,20.2,0,0,1,2.43-4.561c.563-.759,1.887-2.537,3.164-2.706,1.152-.188,2.1,1.647,2.462,2.43a11.628,11.628,0,0,1,.915,5.618Z" transform="translate(-5.504 -8.773)" fill="#c1c6c8"/>
</svg>
