<svg xmlns="http://www.w3.org/2000/svg" width="65.249" height="65.624" viewBox="0 0 65.249 65.624">
  <g id="Component_47_1" data-name="Component 47 – 1" transform="translate(7.625)">
    <ellipse id="Ellipse_320" data-name="Ellipse 320" cx="22" cy="5" rx="22" ry="5" transform="translate(3 45)" fill="#eaeaea"/>
    <g id="Rectangle_1542" data-name="Rectangle 1542" fill="#fff" stroke="#c1c6c8" stroke-width="2">
      <path d="M0,0H25A25,25,0,0,1,50,25v0A25,25,0,0,1,25,50H0a0,0,0,0,1,0,0V0A0,0,0,0,1,0,0Z" stroke="none"/>
      <path d="M1,1H25A24,24,0,0,1,49,25v0A24,24,0,0,1,25,49H1a0,0,0,0,1,0,0V1A0,0,0,0,1,1,1Z" fill="none"/>
    </g>
    <g id="_19" data-name=" 19" transform="translate(21.9 29.4) rotate(-90)">
      <path id="Path_36" data-name="Path 36" d="M4.7,0,0,4.7,1.4,6.1,4.7,2.8,8,6.1,9.4,4.7Z" transform="translate(0 0)" fill="#1a2630"/>
    </g>
  </g>
</svg>
