<svg id="Component_19_1" data-name="Component 19 – 1" xmlns="http://www.w3.org/2000/svg" width="50.765" height="50.765" viewBox="0 0 50.765 50.765">
  <path id="Path_387" data-name="Path 387" d="M31.632,6.25a25.41,25.41,0,1,0,17.94,7.442A25.394,25.394,0,0,0,31.632,6.25Zm16.6,39.417L36.009,33.445H53.3a21.642,21.642,0,0,1-5.065,12.222ZM53.3,29.819H33.445V9.969a21.768,21.768,0,0,1,19.85,19.85ZM9.876,31.632A21.771,21.771,0,0,1,29.819,9.969V30.882a3.6,3.6,0,0,0,1.063,2.563L45.667,48.23a21.735,21.735,0,0,1-35.791-16.6Z" transform="translate(-6.25 -6.25)" fill="#c1c6c8"/>
</svg>
