<svg id="Component_21_1" data-name="Component 21 – 1" xmlns="http://www.w3.org/2000/svg" width="55.892" height="56.394" viewBox="0 0 55.892 56.394">
  <path id="Path_393" data-name="Path 393" d="M47.525,29.4a5.035,5.035,0,0,1,3.564,1.476l.093.1A5.024,5.024,0,1,1,47.525,29.4ZM33.347,43.581a5.035,5.035,0,0,1,3.564,1.476l.093.1a5.036,5.036,0,1,1-7.221-.1l.1-.093a5.025,5.025,0,0,1,3.461-1.383ZM34.7,47.272a1.919,1.919,0,0,0-2.639-.064L32,47.272a1.9,1.9,0,1,0,2.759.056l-.059-.056ZM19.17,43.581a5.022,5.022,0,0,1,3.557,1.478l0,0a5.034,5.034,0,1,1-7.125-.01l.1-.093a5.025,5.025,0,0,1,3.461-1.383Zm1.349,3.686a1.925,1.925,0,0,0-2.639-.059l-.059.064a1.907,1.907,0,0,0,2.7,2.7,1.915,1.915,0,0,0,0-2.7ZM33.348,29.4a5.035,5.035,0,0,1,3.564,1.476l.093.1a5.036,5.036,0,1,1-7.221-.1l.1-.093A5.025,5.025,0,0,1,33.348,29.4ZM34.7,33.095a1.919,1.919,0,0,0-2.639-.064L32,33.095a1.9,1.9,0,1,0,2.759.056l-.059-.056ZM8.535,21.666H58.158v-5.52a3.414,3.414,0,0,0-1-2.426l0,0a3.422,3.422,0,0,0-2.426-1H52.19v1.341a3.243,3.243,0,0,1-3.236,3.236H46.093a3.22,3.22,0,0,1-2.279-.95l0,0a3.22,3.22,0,0,1-.95-2.279V12.715H23.836v1.341A3.243,3.243,0,0,1,20.6,17.292H17.741a3.243,3.243,0,0,1-3.233-3.236V12.715H11.974a3.414,3.414,0,0,0-2.426,1l0,0a3.422,3.422,0,0,0-1,2.426v5.52ZM58.158,24.8H8.535V54.824a3.414,3.414,0,0,0,1,2.426l0,0a3.422,3.422,0,0,0,2.426,1h42.75a3.422,3.422,0,0,0,2.426-1l0,0a3.422,3.422,0,0,0,1-2.426V46.188a1.567,1.567,0,1,1,3.133,0v8.636a6.556,6.556,0,0,1-1.929,4.636l0,0a6.548,6.548,0,0,1-4.634,1.929H11.969a6.556,6.556,0,0,1-4.636-1.929l0,0A6.55,6.55,0,0,1,5.4,54.824V16.146A6.556,6.556,0,0,1,7.328,11.51l0,0a6.55,6.55,0,0,1,4.636-1.929H14.5V8.235A3.243,3.243,0,0,1,17.736,5H20.6a3.243,3.243,0,0,1,3.233,3.236V9.577H42.854V8.235a3.22,3.22,0,0,1,.95-2.279l0,0A3.22,3.22,0,0,1,46.088,5h2.861a3.219,3.219,0,0,1,2.279.95l0,0a3.227,3.227,0,0,1,.95,2.279V9.577h2.533a6.55,6.55,0,0,1,4.634,1.929l0,0a6.55,6.55,0,0,1,1.929,4.636V36.872a1.567,1.567,0,1,1-3.133,0V24.8Zm0,16.638a1.567,1.567,0,0,1,3.133,0v.188a1.567,1.567,0,0,1-3.133,0Zm-9.2-33.3H46.092a.116.116,0,0,0-.073.027.108.108,0,0,0-.027.073v5.818a.116.116,0,0,0,.027.073.1.1,0,0,0,.073.027h2.861a.1.1,0,0,0,.1-.1V8.234a.1.1,0,0,0-.024-.071l0,0a.1.1,0,0,0-.071-.024Zm-28.355,0H17.738a.109.109,0,0,0-.071.029.1.1,0,0,0-.029.071v5.818a.1.1,0,0,0,.1.1H20.6a.109.109,0,0,0,.071-.029.1.1,0,0,0,.029-.071V8.234a.1.1,0,0,0-.1-.1ZM47.525,43.581a5.035,5.035,0,0,1,3.564,1.476l.093.1a5.024,5.024,0,1,1-3.657-1.579Zm1.349,3.691a1.643,1.643,0,1,0,.061.056l-.059-.056Zm0-14.177a1.643,1.643,0,1,0,.061.056l-.059-.056Z" transform="translate(-5.399 -4.999)" fill="#c1c6c8"/>
</svg>
